<?xml version="1.0" encoding="utf-8"?>
<!-- Generator: Adobe Illustrator 22.1.0, SVG Export Plug-In . SVG Version: 6.00 Build 0)  -->
<svg version="1.1" id="레이어_1" xmlns="http://www.w3.org/2000/svg" xmlns:xlink="http://www.w3.org/1999/xlink" x="0px"
	 y="0px" viewBox="0 0 105 93" style="enable-background:new 0 0 105 93;" xml:space="preserve">
<style type="text/css">
	.st0{fill:#0D60EA;}
	.st1{fill:#070B0E;}
</style>
<g transform="matrix( 1, 0, 0, 1, -40,0) ">
	<g>
		<g id="Layer0_2_FILL">
			<path class="st0" d="M75.2,0.8c-2.7,0-4.9,1-6.8,3c-1.9,1.9-2.8,4.2-2.8,6.8c0,2.7,0.9,4.9,2.8,6.8c1.9,1.9,4.1,2.8,6.8,2.8
				c2.7,0,5-0.9,6.9-2.8c1.8-1.9,2.7-4.2,2.7-6.8c0-2.7-0.9-5-2.7-6.8C80.2,1.7,77.9,0.8,75.2,0.8z"/>
			<path class="st1" d="M96.7,30.6c1.1,0.1,2,0.5,2.7,1.1c0.7,0.6,1,1.3,1,2.2c0,0.8-0.3,1.5-0.8,2c-0.5,0.5-1.2,0.8-2,0.8
				c-1.2,0-2.5-0.8-3.9-2.3l-6.6-7.6h-2.5v13.6h3.3V33l3.8,4.4c1,1.2,2,2,2.9,2.6c0.9,0.6,2,0.8,3.2,0.8c1.8,0,3.2-0.7,4.4-2
				c1.2-1.3,1.8-2.9,1.8-4.8c0-1.9-0.6-3.5-1.8-4.8c-1.3-1.4-2.8-2.2-4.6-2.4L96.7,30.6 M119.4,3.8l-2.6-2.6l-7.2,7.4l-7.3-7.4
				l-2.6,2.6l7.4,7.3l-7.4,7.3l2.6,2.6l7.3-7.4l7.2,7.4l2.6-2.6l-7.3-7.3L119.4,3.8z"/>
		</g>
	</g>
</g>
<path class="st1" d="M50.4,91.9l0.4-1.6h3.8l0.5,1.6h3.4l-3.4-10.8h-4.8L47,91.9H50.4 M51.5,88.1l1.2-4.2l1.3,4.2H51.5 M65,91.9
	v-8.1h3.1v-2.6h-9.3v2.6h3v8.1H65 M69.3,81.2v10.8h3.2v-4.3h3.6v4.3h3.3V81.2h-3.3v3.9h-3.6v-3.9H69.3 M14.9,91.9l0.5-1.6h3.8
	l0.4,1.6H23l-3.3-10.8h-4.8l-3.3,10.8H14.9 M16,88.1l1.2-4.2l1.3,4.2H16 M43,81.2l-3.1,4.1v-4.1h-3.2v10.8h3.2v-4.6l3.1,4.6h3.8
	l-4-5.7l4-5.1H43 M31.2,84.1c0.4,0.4,0.7,0.8,0.9,1.3l3-0.3c-0.1-1.3-0.7-2.3-1.8-3.2c-1-0.8-2.3-1.2-3.8-1.2
	c-1.7,0-3.1,0.5-4.2,1.6c-1.1,1.1-1.7,2.5-1.7,4.1c0,1.7,0.6,3,1.7,4.1c1.1,1.1,2.5,1.6,4.2,1.6c1.5,0,2.7-0.4,3.8-1.2
	c1-0.8,1.6-1.8,1.7-3.1l-3-0.3c-0.1,0.6-0.4,1-0.9,1.4c-0.4,0.3-0.9,0.5-1.5,0.5c-0.8,0-1.5-0.3-2-0.8c-0.5-0.6-0.8-1.3-0.8-2.1
	c0-0.9,0.2-1.6,0.8-2.2c0.5-0.5,1.2-0.8,2-0.8C30.2,83.6,30.7,83.7,31.2,84.1 M31.1,59.9l4.6,6.8L31,74.1h3.9l3.4-5.7l3.6,5.7h3.9
	l-4.9-7.5l4.8-6.8h-3.9l-3.5,5l-3.3-5H31.1 M62.2,61.5c-1.2,1.4-1.8,3.3-1.8,5.5c0,2.2,0.6,4,1.8,5.4c1.2,1.4,2.8,2.2,4.7,2.2
	s3.5-0.7,4.7-2.2c1.2-1.4,1.8-3.2,1.8-5.4c0-2.2-0.6-4.1-1.8-5.5c-1.2-1.4-2.8-2.1-4.7-2.1S63.5,60.1,62.2,61.5 M66.9,62.2
	c0.9,0,1.7,0.5,2.2,1.4c0.6,0.9,0.9,2,0.9,3.4c0,1.4-0.3,2.5-0.9,3.4c-0.6,0.9-1.3,1.3-2.2,1.3c-0.9,0-1.7-0.4-2.3-1.3
	c-0.6-0.9-0.8-2-0.8-3.4c0-1.4,0.3-2.5,0.8-3.4C65.2,62.7,66,62.2,66.9,62.2 M49.3,60.7c-1,0.9-1.6,2.1-1.8,3.5l3,0.6
	c0.1-0.8,0.4-1.5,0.9-2c0.5-0.5,1-0.8,1.6-0.8s1.1,0.2,1.6,0.6c0.4,0.4,0.6,1,0.6,1.6c0,0.9-0.6,1.9-1.8,2.9l-5.8,5v1.9h10.3v-2.6
	h-5.6l3.3-2.9c0.9-0.8,1.5-1.5,1.9-2.1c0.4-0.7,0.6-1.6,0.6-2.5c0-1.3-0.5-2.5-1.5-3.4c-1-0.9-2.2-1.3-3.7-1.3
	C51.5,59.4,50.3,59.8,49.3,60.7 M0.3,81.2v10.8h3.2v-4.3h3.5v4.3h3.3V81.2H7.1v3.9H3.5v-3.9H0.3 M93,86.6c0-1.7-0.6-3.1-1.7-4.1
	c-1.1-1.1-2.6-1.6-4.4-1.6s-3.2,0.5-4.4,1.6c-1.1,1-1.6,2.4-1.6,4.1c0,1.7,0.6,3.1,1.6,4.1c1.1,1,2.6,1.6,4.4,1.6s3.3-0.5,4.4-1.6
	C92.5,89.6,93,88.2,93,86.6 M89,84.4c0.5,0.6,0.8,1.3,0.8,2.2c0,0.9-0.2,1.6-0.8,2.1c-0.5,0.5-1.2,0.8-2.1,0.8c-0.8,0-1.5-0.3-2-0.8
	c-0.5-0.6-0.8-1.3-0.8-2.1c0-0.9,0.2-1.6,0.8-2.2c0.5-0.5,1.2-0.8,2-0.8C87.8,83.6,88.5,83.8,89,84.4 M104.7,91.9V81.2h-3.1V88
	L98,81.2h-3.4v10.8h3.1v-6.8l3.7,6.8H104.7z"/>
</svg>
