<?xml version="1.0" encoding="utf-8"?>
<!-- Generator: Adobe Illustrator 22.1.0, SVG Export Plug-In . SVG Version: 6.00 Build 0)  -->
<svg version="1.1" id="레이어_1" xmlns="http://www.w3.org/2000/svg" xmlns:xlink="http://www.w3.org/1999/xlink" x="0px"
	 y="0px" viewBox="0 0 56 40" style="enable-background:new 0 0 56 40;" xml:space="preserve">
<style type="text/css">
	.st0{fill:#0D60EA;}
	.st1{fill:#070B0E;}
</style>
<g transform="matrix( 1, 0, 0, 1, -40,0) ">
	<g>
		<g id="Layer0_2_FILL">
			<path class="st0" d="M50.6,0c-2.7,0-4.9,1-6.8,3C41.9,4.9,41,7.2,41,9.8c0,2.7,0.9,4.9,2.8,6.8c1.9,1.9,4.1,2.8,6.8,2.8
				c2.7,0,5-0.9,6.9-2.8c1.8-1.9,2.7-4.2,2.7-6.8c0-2.7-0.9-5-2.7-6.8C55.6,0.9,53.3,0,50.6,0z"/>
			<path class="st1" d="M72.1,29.8c1.1,0.1,2,0.5,2.7,1.1c0.7,0.6,1,1.3,1,2.2c0,0.8-0.3,1.5-0.8,2s-1.2,0.8-2,0.8
				c-1.2,0-2.5-0.8-3.9-2.3L62.5,26H60v13.6h3.3v-7.4l3.8,4.4c1,1.2,2,2,2.9,2.6s2,0.8,3.2,0.8c1.8,0,3.2-0.7,4.4-2
				c1.2-1.3,1.8-2.9,1.8-4.8c0-1.9-0.6-3.5-1.8-4.8C76.3,27,74.8,26.2,73,26L72.1,29.8 M94.8,3l-2.6-2.6L85,7.8l-7.3-7.4L75.1,3
				l7.4,7.3l-7.4,7.3l2.6,2.6l7.3-7.4l7.2,7.4l2.6-2.6l-7.3-7.3L94.8,3z"/>
		</g>
	</g>
</g>
</svg>
